<svg xmlns="http://www.w3.org/2000/svg" viewBox="0 0 178.995 39.636">
  <defs>
    <style>
      .cls-1 {
        fill: #00a69c;
      }
    </style>
  </defs>
  <g id="Group_11" data-name="Group 11" transform="translate(-32 -23)">
    <g id="Group_1" data-name="Group 1" transform="translate(68 62.711) rotate(-180)">
      <path id="Path_1" data-name="Path 1" class="cls-1" d="M20.1,87.677c.038-.549.095-1.08.152-1.629.038-.246.057-.512.095-.758.019-.095.019-.189.038-.284.133-.909.3-1.838.512-2.728.057-.265.133-.512.189-.777a.1.1,0,0,0,.038.076A39.74,39.74,0,0,1,22.149,85.5c.644,3.013,1.023,6.063,1.629,9.076a26.764,26.764,0,0,0,1.194,4.547c.531,1.307,1.175,2.6,2.615,3.069,2.766.891,4.055-2.444,4.68-4.434.739-2.331,1.232-4.718,1.819-7.105.114-.455.227-.909.341-1.345.644,3.126.985,6.366,2.2,9.322,0,.019.019.038.019.076l-10.629,6.158a7.517,7.517,0,0,1-4.055.834c-.038-.095-.095-.171-.133-.265l-.114-.227c-.152-.4-.3-.8-.436-1.194a26.541,26.541,0,0,1-.72-2.937c-.095-.531-.189-1.061-.265-1.611h0a2.088,2.088,0,0,1-.038-.341c-.038-.284-.057-.568-.095-.853-.114-1.156-.189-2.331-.227-3.486A63.327,63.327,0,0,1,20.1,87.677Z" transform="translate(-4.415 -65.997)"/>
      <path id="Path_2" data-name="Path 2" class="cls-1" d="M128.414,74.814a42.756,42.756,0,0,0,.966,8.413l-8.375-4.869a7.8,7.8,0,0,1-3.505-6.139v-.663L131.237,56.7a11.188,11.188,0,0,0-1.667,4.244A53.243,53.243,0,0,0,128.414,74.814Z" transform="translate(-117.5 -45.896)"/>
      <path id="Path_3" data-name="Path 3" class="cls-1" d="M3.505,7.318,14.552.913a7.826,7.826,0,0,1,7.048,0l10.989,6.4A7.783,7.783,0,0,1,36,13.457V26.322a5.915,5.915,0,0,1-.322,2.179c-.474-1.914-.72-3.865-1.118-5.8A23.091,23.091,0,0,0,33.4,18.345c-.493-1.175-1.175-2.653-2.6-2.918A3.229,3.229,0,0,0,27.3,17.17l-4.434,4.718a60.929,60.929,0,0,0-1.5-6.878c-.493-1.629-1.1-3.865-2.5-4.983-1.819-1.459-3.771-1-5.135.777L0,25.659v-12.2A7.828,7.828,0,0,1,3.505,7.318Z" transform="translate(0 0)"/>
      <path id="Path_4" data-name="Path 4" class="cls-1" d="M48.187,96.491c-.4,1.648-.777,3.316-1.213,4.964-.284-1.288-.512-2.6-.739-3.884-.152-.872-.284-1.743-.436-2.615L50.272,90.2A22.954,22.954,0,0,0,48.187,96.491Z" transform="translate(-22.949 -73.049)"/>
    </g>
    <path id="Path_13" data-name="Path 13" class="cls-1" d="M7.479,0a6.781,6.781,0,0,0,6.777-6.777,6.764,6.764,0,0,0-6.777-6.777A6.781,6.781,0,0,0,.7-6.777,6.8,6.8,0,0,0,7.479,0Zm0-10.881a4.1,4.1,0,0,1,4.1,4.1,4.12,4.12,0,0,1-4.1,4.1,4.12,4.12,0,0,1-4.1-4.1A4.1,4.1,0,0,1,7.479-10.881Zm15.147-2.646A6.781,6.781,0,0,0,15.849-6.75v5.427A1.354,1.354,0,0,0,17.2.027a1.349,1.349,0,0,0,1.323-1.35V-6.75a4.1,4.1,0,0,1,4.1-4.1,1.354,1.354,0,0,0,1.35-1.35A1.331,1.331,0,0,0,22.626-13.527Zm8.073-.081a6.764,6.764,0,0,0-6.777,6.777A6.781,6.781,0,0,0,30.7-.054a6.8,6.8,0,0,0,6.777-6.777V-18.954a1.331,1.331,0,0,0-1.35-1.323A1.325,1.325,0,0,0,34.8-18.954v6.723A6.765,6.765,0,0,0,30.7-13.608Zm0,10.881a4.12,4.12,0,0,1-4.1-4.1,4.1,4.1,0,0,1,4.1-4.1,4.1,4.1,0,0,1,4.1,4.077v.027A4.1,4.1,0,0,1,30.7-2.727ZM56.916,0a9.327,9.327,0,0,0,7.911-4.374,1.19,1.19,0,0,0-.486-1.782,1.173,1.173,0,0,0-1.782.324,6.748,6.748,0,0,1-5.643,3.078A6.7,6.7,0,0,1,50.139-9.4a6.811,6.811,0,0,1,6.777-6.75,6.735,6.735,0,0,1,5.805,3.375,1.31,1.31,0,0,0,1.782.486,1.318,1.318,0,0,0,.486-1.944A9.128,9.128,0,0,0,56.916-18.9a9.524,9.524,0,0,0-9.531,9.5A9.519,9.519,0,0,0,56.916,0ZM73.3,0a6.781,6.781,0,0,0,6.777-6.777A6.764,6.764,0,0,0,73.3-13.554a6.781,6.781,0,0,0-6.777,6.777A6.8,6.8,0,0,0,73.3,0Zm0-10.881a4.1,4.1,0,0,1,4.1,4.1,4.12,4.12,0,0,1-4.1,4.1,4.12,4.12,0,0,1-4.1-4.1A4.1,4.1,0,0,1,73.3-10.881Zm17.928-2.646a1.331,1.331,0,0,0-1.35,1.323v6.75a2.806,2.806,0,0,1-2.808,2.808,2.8,2.8,0,0,1-2.781-2.808V-12.2a1.331,1.331,0,0,0-1.35-1.323A1.325,1.325,0,0,0,81.621-12.2v6.8A5.468,5.468,0,0,0,87.075.027,5.474,5.474,0,0,0,92.556-5.4v-6.8A1.325,1.325,0,0,0,91.233-13.527Zm9.639-.027A6.781,6.781,0,0,0,94.1-6.777V-1.35A1.331,1.331,0,0,0,95.418,0a1.337,1.337,0,0,0,1.35-1.35V-6.777a4.1,4.1,0,0,1,4.1-4.1,4.1,4.1,0,0,1,4.1,4.1V-1.35A1.331,1.331,0,0,0,106.3,0a1.337,1.337,0,0,0,1.35-1.35V-6.777A6.781,6.781,0,0,0,100.872-13.554Zm14.526.027h-1.917v-5.4a1.331,1.331,0,0,0-1.35-1.323,1.325,1.325,0,0,0-1.323,1.323v5.4h-1.944a1.325,1.325,0,0,0-1.323,1.323,1.349,1.349,0,0,0,1.323,1.35h1.944v9.531a1.349,1.349,0,0,0,1.323,1.35,1.354,1.354,0,0,0,1.35-1.35v-9.531H115.4a1.354,1.354,0,0,0,1.35-1.35A1.331,1.331,0,0,0,115.4-13.527Zm8.073-.027a6.764,6.764,0,0,0-6.777,6.777A6.781,6.781,0,0,0,123.471,0a6.61,6.61,0,0,0,4.158-1.161,1.406,1.406,0,0,0,.648-1.782,1.291,1.291,0,0,0-1.782-.621,5.3,5.3,0,0,1-3.024.891,4.116,4.116,0,0,1-3.888-2.781H128.9a1.331,1.331,0,0,0,1.35-1.323A6.648,6.648,0,0,0,123.471-13.554Zm0,2.673a3.949,3.949,0,0,1,3.915,2.754h-7.8A4.128,4.128,0,0,1,123.471-10.881Zm15.174-2.646a6.781,6.781,0,0,0-6.777,6.777v5.427a1.354,1.354,0,0,0,1.35,1.35,1.349,1.349,0,0,0,1.323-1.35V-6.75a4.1,4.1,0,0,1,4.1-4.1,1.354,1.354,0,0,0,1.35-1.35A1.331,1.331,0,0,0,138.645-13.527Z" transform="translate(71 50)"/>
  </g>
</svg>
